<svg width="420" height="130" viewBox="0 0 420 130" fill="none" xmlns="http://www.w3.org/2000/svg">
<g id="Simplification">
<g id="AMS_Slot4">
<path id="Background4" d="M356.387 17.5213C356.809 17.8467 357.19 18.2133 357.566 18.5895C357.7 18.7232 357.837 18.8542 357.974 18.9847C359.225 20.2486 361.001 23.2149 361.001 25.0546C368.615 25.0546 376.228 25.0546 384.072 25.0546C384.174 24.6851 384.275 24.3155 384.38 23.9348C384.517 23.5819 384.657 23.237 384.809 22.8913C384.85 22.799 384.89 22.7067 384.932 22.6116C385.508 21.3166 386.144 20.1523 387.046 19.0484C387.134 18.9356 387.134 18.9356 387.224 18.8205C388.034 17.8328 389.041 17.1764 390.314 17.0314C391.528 16.9603 392.533 17.3111 393.456 18.0987C395.145 19.6075 396.051 21.5806 396.89 23.6294C396.925 23.7143 396.961 23.7992 396.997 23.8866C398.81 28.2469 399.656 33.1214 400.274 37.7798C400.296 37.9475 400.319 38.1153 400.341 38.283C400.623 40.3858 400.837 42.4927 401.011 44.6068C401.019 44.7035 401.027 44.8002 401.035 44.8998C401.097 45.6479 401.149 46.3964 401.196 47.1455C401.201 47.2135 401.205 47.2815 401.21 47.3516C401.409 50.4138 401.437 53.4725 401.434 56.5403C401.433 57.0653 401.434 57.5903 401.436 58.1153C401.446 60.9469 401.417 63.77 401.261 66.5978C401.255 66.7117 401.248 66.8256 401.242 66.943C401.028 70.7395 400.657 74.5327 400.099 78.2949C400.07 78.4918 400.041 78.6887 400.013 78.8856C399.371 83.249 398.353 87.6416 396.685 91.7343C396.653 91.8137 396.621 91.893 396.588 91.9747C396.195 92.9402 395.726 93.8171 395.147 94.6866C395.092 94.7729 395.038 94.8593 394.982 94.9482C394.127 96.2516 393.056 97.2448 391.558 97.7406C390.224 97.8332 389.149 97.7058 388.09 96.8212C387.979 96.722 387.979 96.722 387.866 96.6208C387.789 96.5525 387.712 96.4843 387.633 96.414C387.017 95.8373 386.564 95.1975 386.123 94.483C386.056 94.3751 385.988 94.2672 385.919 94.1561C385.109 92.8124 384.571 91.3859 384.072 89.9019C372.652 89.8515 372.652 89.8515 361.001 89.8001C360.967 89.9681 360.933 90.1361 360.899 90.3091C360.543 91.3796 360.087 92.3883 359.559 93.385C359.473 93.5489 359.388 93.7137 359.303 93.8785C358.482 95.4369 357.266 97.0586 355.531 97.6551C354.4 97.9135 353.283 97.8373 352.285 97.2316C349.817 95.5423 348.547 92.4651 347.658 89.7238C347.605 89.5606 347.551 89.3974 347.497 89.2342C347.37 88.8449 347.244 88.455 347.119 88.0647C347.065 87.8933 347.009 87.722 346.954 87.5508C345.947 84.405 345.438 81.0966 344.942 77.8412C344.904 77.596 344.866 77.3508 344.828 77.1057C343.572 68.9595 343.394 60.6145 343.614 52.3882C343.616 52.3107 343.618 52.2333 343.62 52.1534C343.626 51.9379 343.633 51.7225 343.64 51.507C343.645 51.3293 343.645 51.3293 343.651 51.1481C343.673 50.7938 343.719 50.4483 343.775 50.0977C343.707 50.1313 343.639 50.1649 343.569 50.1995C340.583 50.6299 337.4 49.9471 334.96 48.1619C332.306 46.1437 330.625 43.4609 330.096 40.1725C329.694 36.9751 330.565 33.9342 332.495 31.3663C332.568 31.2687 332.641 31.171 332.716 31.0704C333.281 30.3478 333.921 29.7836 334.649 29.2285C334.731 29.1647 334.813 29.1009 334.897 29.0352C337.381 27.2038 340.634 26.5501 343.67 26.9655C344.743 27.1366 345.876 27.4211 346.851 27.905C346.87 27.8194 346.889 27.7337 346.908 27.6454C347.77 23.9833 349.234 19.5483 352.593 17.4195C353.743 16.8486 355.281 16.8395 356.387 17.5213Z" fill="#ABACAB"/>
<path id="Color4" fill="#FE9800" d="M361.412 26.1746C364.673 26.1653 367.935 26.1581 371.196 26.1538C371.581 26.1533 371.967 26.1528 372.352 26.1523C372.429 26.1522 372.505 26.1521 372.584 26.1519C373.825 26.1502 375.066 26.147 376.307 26.1432C377.581 26.1394 378.855 26.1371 380.129 26.1363C380.914 26.1358 381.7 26.134 382.486 26.1307C383.089 26.1283 383.692 26.128 384.295 26.1286C384.542 26.1285 384.789 26.1277 385.036 26.1261C385.374 26.1241 385.711 26.1246 386.049 26.1257C386.195 26.1239 386.195 26.1239 386.343 26.1221C387.19 26.1296 387.93 26.343 388.579 26.9C389.844 28.2825 390.511 30.0474 391.148 31.7737C391.176 31.8457 391.203 31.9176 391.231 31.9918C392.53 35.4523 393.074 39.2412 393.557 42.887C393.603 43.2297 393.65 43.5722 393.698 43.9147C394.847 52.3093 394.792 61.124 393.538 72.0763C393.505 72.3016 393.473 72.527 393.442 72.7524C393.179 74.6089 392.874 76.4512 392.475 78.2841C392.459 78.36 392.442 78.436 392.425 78.5142C390.713 86.3921 390.713 86.3921 387.961 88.3612C387.64 88.5506 387.377 88.5914 387.012 88.5912C386.875 88.5915 386.875 88.5915 386.736 88.5918C386.585 88.5914 386.585 88.5914 386.431 88.5909C386.271 88.5911 386.271 88.5911 386.108 88.5912C385.749 88.5914 385.39 88.5908 385.031 88.5903C384.775 88.5902 384.518 88.5902 384.261 88.5903C383.708 88.5903 383.155 88.59 382.601 88.5895C381.801 88.5886 381.001 88.5884 380.201 88.5883C378.903 88.588 377.604 88.5873 376.306 88.5864C375.045 88.5855 373.784 88.5847 372.523 88.5843C372.445 88.5843 372.367 88.5842 372.287 88.5842C371.897 88.5841 371.508 88.584 371.118 88.5838C367.883 88.5828 364.647 88.581 361.412 88.5787C361.44 88.4665 361.469 88.3542 361.498 88.2386C361.535 88.0901 361.573 87.9416 361.61 87.7931C361.638 87.6824 361.638 87.6823 361.666 87.5694C362.228 85.3394 362.747 83.1051 363.155 80.8418C363.179 80.7122 363.203 80.5825 363.227 80.4489C364.046 75.9434 364.511 71.3877 364.77 66.8187C364.776 66.712 364.782 66.6052 364.789 66.4952C364.956 63.4836 365.022 60.4749 365.02 57.4594C365.02 57.3376 365.02 57.3376 365.02 57.2134C365.019 52.9136 364.88 48.6267 364.51 44.3415C364.488 44.0909 364.467 43.8402 364.446 43.5896C364.262 41.4255 364.003 39.2754 363.7 37.1246C363.684 37.0108 363.668 36.8969 363.651 36.7796C363.606 36.4578 363.56 36.136 363.513 35.8143C363.499 35.7173 363.485 35.6203 363.471 35.5203C363.458 35.4317 363.445 35.3431 363.431 35.2519C363.42 35.1745 363.409 35.0971 363.397 35.0174C363.368 34.8193 363.368 34.8193 363.258 34.6241C363.225 34.4504 363.196 34.2759 363.169 34.1012C363.043 33.3277 362.89 32.5602 362.732 31.7928C362.717 31.7188 362.702 31.6447 362.686 31.5685C362.424 30.2967 362.117 29.0397 361.779 27.7856C361.746 27.6629 361.713 27.5402 361.679 27.4137C361.65 27.3068 361.62 27.1998 361.59 27.0896C361.515 26.7858 361.462 26.4834 361.412 26.1746Z"/>
<g id="Foreground4">
<path d="M355.139 19.4878C357.801 20.9574 358.856 25.3362 359.624 28.0022C360.238 30.1814 360.69 32.4007 361.105 34.6243C361.129 34.752 361.153 34.8797 361.178 35.0112C362.105 40.0478 362.52 45.1909 362.746 50.3017C362.75 50.3953 362.754 50.4889 362.759 50.5854C362.86 52.8067 362.869 55.0265 362.868 57.2496C362.868 57.3889 362.868 57.3889 362.868 57.5309C362.867 60.5212 362.829 63.5026 362.643 66.4881C362.632 66.6714 362.621 66.8547 362.61 67.038C362.124 78.6547 361.345 87.6098 356.183 94.3816C356.118 94.4557 356.053 94.5298 355.985 94.6062C355.567 95.055 355.171 95.4176 354.543 95.5014C353.716 95.4768 353.151 95.0525 352.598 94.4778C349.971 91.4158 349.099 86.9239 348.236 83.0994C348.19 82.8983 348.143 82.6975 348.096 82.4966C346.786 76.8695 346.342 70.9985 346.046 65.2429C346.037 65.0572 346.027 64.8716 346.017 64.686C345.898 62.4782 345.914 60.2679 345.916 58.0578C345.917 57.5075 345.916 56.9573 345.916 56.4071C345.914 54.0985 345.922 51.7937 346.032 49.4873C346.145 49.4332 346.258 49.3791 346.375 49.3233C349.357 47.8938 351.75 45.7056 352.876 42.5543C353.87 39.6005 353.819 36.3001 352.415 33.479C351.753 32.2019 350.907 30.9958 349.798 30.062C349.741 30.0132 349.684 29.9645 349.626 29.9143C349.514 29.8199 349.4 29.7276 349.285 29.6378C349.13 29.5076 349.13 29.5076 348.903 29.2289C348.9 28.9452 348.927 28.7818 349.006 28.5162C349.027 28.4322 349.049 28.3482 349.072 28.2617C350.951 21.25 350.951 21.25 353.411 19.6285C353.993 19.3072 354.51 19.2337 355.139 19.4878Z" fill="#EDEDED"/>
<path d="M391.45 19.5069C393.99 20.9134 394.981 24.8468 395.763 27.3965C395.8 27.5148 395.836 27.6331 395.874 27.755C396.786 30.744 397.329 33.819 397.801 36.9022C397.816 36.9994 397.831 37.0966 397.846 37.1968C398.003 38.2278 398.145 39.2586 398.255 40.2956C398.305 40.7558 398.364 41.2131 398.433 41.6709C399.145 46.4869 399.198 51.4496 399.249 56.308C399.251 56.4529 399.253 56.5977 399.255 56.7426C399.263 57.582 399.261 58.4208 399.249 59.2602C399.248 59.3305 399.248 59.4009 399.247 59.4733C399.139 67.8559 398.4 76.2078 396.583 84.4051C396.561 84.5092 396.538 84.6133 396.515 84.7205C395.812 87.9069 394.61 93.3079 391.661 95.196C391.231 95.4421 390.875 95.5388 390.38 95.4569C389.252 95.1329 388.578 94.1669 388.021 93.1968C386.535 90.5064 386.535 90.5064 386.535 89.8006C386.595 89.8003 386.656 89.8 386.719 89.7998C387.83 89.7483 388.674 89.1883 389.466 88.4426C392.106 85.5451 392.926 81.0692 393.712 77.3808C393.736 77.2688 393.76 77.1568 393.785 77.0414C394.747 72.5059 395.141 67.854 395.353 63.2305C395.359 63.1108 395.365 62.991 395.371 62.8677C395.778 54.4887 395.555 45.6551 393.738 37.4303C393.712 37.3105 393.685 37.1907 393.658 37.0672C392.374 30.6386 392.374 30.6386 388.514 25.5724C387.865 25.186 387.288 25.058 386.535 25.0551C386.596 24.5205 386.769 24.0834 386.99 23.598C387.026 23.5184 387.062 23.4389 387.099 23.3569C387.764 21.9252 388.573 20.2431 390.021 19.456C390.527 19.2885 390.962 19.2905 391.45 19.5069Z" fill="#EDEDED"/>
<path d="M354.131 51.5232C354.775 51.816 355.076 52.3299 355.362 52.9484C355.919 54.5336 356.017 56.1892 356.009 57.8539C356.009 57.9313 356.009 58.0086 356.008 58.0883C355.99 62.6105 355.99 62.6105 354.644 64.0447C354.299 64.2827 354.095 64.3466 353.676 64.3692C353.011 64.1489 352.73 63.7047 352.422 63.0963C351.204 60.3194 351.205 55.9231 352.276 53.0955C352.622 52.327 353.142 51.3391 354.131 51.5232Z" fill="#ACACAC"/>
</g>
<path id="Circle4" d="M349.41 29.5731C351.683 31.4791 353.235 34.1206 353.591 37.0754C353.853 40.7082 352.915 43.7764 350.511 46.5469C348.332 48.8861 345.294 50.1315 342.128 50.3195C338.884 50.3941 335.945 49.2 333.593 47.0161C331.269 44.7767 330.059 41.7993 330.01 38.6C330.008 35.9151 330.884 33.5104 332.496 31.3658C332.569 31.2682 332.642 31.1705 332.717 31.0699C333.282 30.3473 333.922 29.7831 334.65 29.228C334.732 29.1642 334.814 29.1004 334.898 29.0347C339.224 25.8448 345.321 26.2581 349.41 29.5731Z" fill="#7B7B7B"/>
<g id="Number4">
<path d="M341.248 33.2188C342.094 33.2188 342.94 33.2188 343.812 33.2188C343.812 35.7047 343.812 38.1907 343.812 40.752C344.251 40.752 344.691 40.752 345.145 40.752C345.145 41.3903 345.145 42.0286 345.145 42.6863C344.705 42.6863 344.265 42.6863 343.812 42.6863C343.812 43.5597 343.812 44.4332 343.812 45.3331C342.999 45.3331 342.187 45.3331 341.351 45.3331C341.351 44.4596 341.351 43.5862 341.351 42.6863C339.693 42.6863 338.034 42.6863 336.326 42.6863C336.326 40.8174 336.326 40.8174 337.018 39.8549C337.161 39.6436 337.303 39.4323 337.445 39.221C337.516 39.1184 337.588 39.0157 337.661 38.91C337.95 38.4898 338.221 38.0596 338.492 37.628C338.591 37.4725 338.69 37.317 338.79 37.1616C339.066 36.7262 339.34 36.2894 339.613 35.8514C339.728 35.6674 339.844 35.4841 339.961 35.3015C340.209 34.9136 340.439 34.5432 340.604 34.1131C340.761 33.7468 340.761 33.7468 341.248 33.2188Z" fill="#FEFEFE"/>
<path d="M341.247 36.4757C341.281 36.4757 341.315 36.4757 341.35 36.4757C341.35 37.8866 341.35 39.2976 341.35 40.7513C340.436 40.7513 339.522 40.7513 338.581 40.7513C338.896 40.1883 339.205 39.6471 339.563 39.1141C339.605 39.0509 339.647 38.9876 339.69 38.9224C339.822 38.7238 339.955 38.5255 340.087 38.3272C340.221 38.127 340.354 37.9268 340.487 37.7265C340.57 37.6027 340.652 37.4791 340.735 37.3556C340.925 37.0698 341.102 36.7868 341.247 36.4757Z" fill="#7B7B7B"/>
</g>
</g>
<g id="AMS_Slot3">
<path id="Background3" d="M274.387 17.5213C274.809 17.8467 275.19 18.2133 275.566 18.5895C275.7 18.7232 275.837 18.8542 275.974 18.9847C277.225 20.2486 279.001 23.2149 279.001 25.0546C286.615 25.0546 294.228 25.0546 302.072 25.0546C302.174 24.6851 302.275 24.3155 302.38 23.9348C302.517 23.5819 302.657 23.237 302.809 22.8913C302.85 22.799 302.89 22.7067 302.932 22.6116C303.508 21.3166 304.144 20.1523 305.046 19.0484C305.134 18.9356 305.134 18.9356 305.224 18.8205C306.034 17.8328 307.041 17.1764 308.314 17.0314C309.528 16.9603 310.533 17.3111 311.456 18.0987C313.145 19.6075 314.051 21.5806 314.89 23.6294C314.925 23.7143 314.961 23.7992 314.997 23.8866C316.81 28.2469 317.656 33.1214 318.274 37.7798C318.296 37.9475 318.319 38.1153 318.341 38.283C318.623 40.3858 318.837 42.4927 319.011 44.6068C319.019 44.7035 319.027 44.8002 319.035 44.8998C319.097 45.6479 319.149 46.3964 319.196 47.1455C319.201 47.2135 319.205 47.2815 319.21 47.3516C319.409 50.4138 319.437 53.4725 319.434 56.5403C319.433 57.0653 319.434 57.5903 319.436 58.1153C319.446 60.9469 319.417 63.77 319.261 66.5978C319.255 66.7117 319.248 66.8256 319.242 66.943C319.028 70.7395 318.657 74.5327 318.099 78.2949C318.07 78.4918 318.041 78.6887 318.013 78.8856C317.371 83.249 316.353 87.6416 314.685 91.7343C314.653 91.8137 314.621 91.893 314.588 91.9747C314.195 92.9402 313.726 93.8171 313.147 94.6866C313.092 94.7729 313.038 94.8593 312.982 94.9482C312.127 96.2516 311.056 97.2448 309.558 97.7406C308.224 97.8332 307.149 97.7058 306.09 96.8212C305.979 96.722 305.979 96.722 305.866 96.6208C305.789 96.5525 305.712 96.4843 305.633 96.414C305.017 95.8373 304.564 95.1975 304.123 94.483C304.056 94.3751 303.988 94.2672 303.919 94.1561C303.109 92.8124 302.571 91.3859 302.072 89.9019C290.652 89.8515 290.652 89.8515 279.001 89.8001C278.967 89.9681 278.933 90.1361 278.899 90.3091C278.543 91.3796 278.087 92.3883 277.559 93.385C277.473 93.5489 277.388 93.7137 277.303 93.8785C276.482 95.4369 275.266 97.0586 273.531 97.6551C272.4 97.9135 271.283 97.8373 270.285 97.2316C267.817 95.5423 266.547 92.4651 265.658 89.7238C265.605 89.5606 265.551 89.3974 265.497 89.2342C265.37 88.8449 265.244 88.455 265.119 88.0647C265.065 87.8933 265.009 87.722 264.954 87.5508C263.947 84.405 263.438 81.0966 262.942 77.8412C262.904 77.596 262.866 77.3508 262.828 77.1057C261.572 68.9595 261.394 60.6145 261.614 52.3882C261.616 52.3107 261.618 52.2333 261.62 52.1534C261.626 51.9379 261.633 51.7225 261.64 51.507C261.645 51.3293 261.645 51.3293 261.651 51.1481C261.673 50.7938 261.719 50.4483 261.775 50.0977C261.707 50.1313 261.639 50.1649 261.569 50.1995C258.583 50.6299 255.4 49.9471 252.96 48.1619C250.306 46.1437 248.625 43.4609 248.096 40.1725C247.694 36.9751 248.565 33.9342 250.495 31.3663C250.568 31.2687 250.641 31.171 250.716 31.0704C251.281 30.3478 251.921 29.7836 252.649 29.2285C252.731 29.1647 252.813 29.1009 252.897 29.0352C255.381 27.2038 258.634 26.5501 261.67 26.9655C262.743 27.1366 263.876 27.4211 264.851 27.905C264.87 27.8194 264.889 27.7337 264.908 27.6454C265.77 23.9833 267.234 19.5483 270.593 17.4195C271.743 16.8486 273.281 16.8395 274.387 17.5213Z" fill="#ABACAB"/>
<path id="Color3" fill="#FE9800" d="M279.412 26.1746C282.673 26.1653 285.935 26.1581 289.196 26.1538C289.581 26.1533 289.967 26.1528 290.352 26.1523C290.429 26.1522 290.505 26.1521 290.584 26.1519C291.825 26.1502 293.066 26.147 294.307 26.1432C295.581 26.1394 296.855 26.1371 298.129 26.1363C298.914 26.1358 299.7 26.134 300.486 26.1307C301.089 26.1283 301.692 26.128 302.295 26.1286C302.542 26.1285 302.789 26.1277 303.036 26.1261C303.374 26.1241 303.711 26.1246 304.049 26.1257C304.195 26.1239 304.195 26.1239 304.343 26.1221C305.19 26.1296 305.93 26.343 306.579 26.9C307.844 28.2825 308.511 30.0474 309.148 31.7737C309.176 31.8457 309.203 31.9176 309.231 31.9918C310.53 35.4523 311.074 39.2412 311.557 42.887C311.603 43.2297 311.65 43.5722 311.698 43.9147C312.847 52.3093 312.792 61.124 311.538 72.0763C311.505 72.3016 311.473 72.527 311.442 72.7524C311.179 74.6089 310.874 76.4512 310.475 78.2841C310.459 78.36 310.442 78.436 310.425 78.5142C308.713 86.3921 308.713 86.3921 305.961 88.3612C305.64 88.5506 305.377 88.5914 305.012 88.5912C304.875 88.5915 304.875 88.5915 304.736 88.5918C304.585 88.5914 304.585 88.5914 304.431 88.5909C304.271 88.5911 304.271 88.5911 304.108 88.5912C303.749 88.5914 303.39 88.5908 303.031 88.5903C302.775 88.5902 302.518 88.5902 302.261 88.5903C301.708 88.5903 301.155 88.59 300.601 88.5895C299.801 88.5886 299.001 88.5884 298.201 88.5883C296.903 88.588 295.604 88.5873 294.306 88.5864C293.045 88.5855 291.784 88.5847 290.523 88.5843C290.445 88.5843 290.367 88.5842 290.287 88.5842C289.897 88.5841 289.508 88.584 289.118 88.5838C285.883 88.5828 282.647 88.581 279.412 88.5787C279.44 88.4665 279.469 88.3542 279.498 88.2386C279.535 88.0901 279.573 87.9416 279.61 87.7931C279.638 87.6824 279.638 87.6823 279.666 87.5694C280.228 85.3394 280.747 83.1051 281.155 80.8418C281.179 80.7122 281.203 80.5825 281.227 80.4489C282.046 75.9434 282.511 71.3877 282.77 66.8187C282.776 66.712 282.782 66.6052 282.789 66.4952C282.956 63.4836 283.022 60.4749 283.02 57.4594C283.02 57.3376 283.02 57.3376 283.02 57.2134C283.019 52.9136 282.88 48.6267 282.51 44.3415C282.488 44.0909 282.467 43.8402 282.446 43.5896C282.262 41.4255 282.003 39.2754 281.7 37.1246C281.684 37.0108 281.668 36.8969 281.651 36.7796C281.606 36.4578 281.56 36.136 281.513 35.8143C281.499 35.7173 281.485 35.6203 281.471 35.5203C281.458 35.4317 281.445 35.3431 281.431 35.2519C281.42 35.1745 281.409 35.0971 281.397 35.0174C281.368 34.8193 281.368 34.8193 281.258 34.6241C281.225 34.4504 281.196 34.2759 281.169 34.1012C281.043 33.3277 280.89 32.5602 280.732 31.7928C280.717 31.7188 280.702 31.6447 280.686 31.5685C280.424 30.2967 280.117 29.0397 279.779 27.7856C279.746 27.6629 279.713 27.5402 279.679 27.4137C279.65 27.3068 279.62 27.1998 279.59 27.0896C279.515 26.7858 279.462 26.4834 279.412 26.1746Z"/>
<g id="Foreground3">
<path d="M273.139 19.4878C275.801 20.9574 276.856 25.3362 277.624 28.0022C278.238 30.1814 278.69 32.4007 279.105 34.6243C279.129 34.752 279.153 34.8797 279.178 35.0112C280.105 40.0478 280.52 45.1909 280.746 50.3017C280.75 50.3953 280.754 50.4889 280.759 50.5854C280.86 52.8067 280.869 55.0265 280.868 57.2496C280.868 57.3889 280.868 57.3889 280.868 57.5309C280.867 60.5212 280.829 63.5026 280.643 66.4881C280.632 66.6714 280.621 66.8547 280.61 67.038C280.124 78.6547 279.345 87.6098 274.183 94.3816C274.118 94.4557 274.053 94.5298 273.985 94.6062C273.567 95.055 273.171 95.4176 272.543 95.5014C271.716 95.4768 271.151 95.0525 270.598 94.4778C267.971 91.4158 267.099 86.9239 266.236 83.0994C266.19 82.8983 266.143 82.6975 266.096 82.4966C264.786 76.8695 264.342 70.9985 264.046 65.2429C264.037 65.0572 264.027 64.8716 264.017 64.686C263.898 62.4782 263.914 60.2679 263.916 58.0578C263.917 57.5075 263.916 56.9573 263.916 56.4071C263.914 54.0985 263.922 51.7937 264.032 49.4873C264.145 49.4332 264.258 49.3791 264.375 49.3233C267.357 47.8938 269.75 45.7056 270.876 42.5543C271.87 39.6005 271.819 36.3001 270.415 33.479C269.753 32.2019 268.907 30.9958 267.798 30.062C267.741 30.0132 267.684 29.9645 267.626 29.9143C267.514 29.8199 267.4 29.7276 267.285 29.6378C267.13 29.5076 267.13 29.5076 266.903 29.2289C266.9 28.9452 266.927 28.7818 267.006 28.5162C267.027 28.4322 267.049 28.3482 267.072 28.2617C268.951 21.25 268.951 21.25 271.411 19.6285C271.993 19.3072 272.51 19.2337 273.139 19.4878Z" fill="#EDEDED"/>
<path d="M309.45 19.5069C311.99 20.9134 312.981 24.8468 313.763 27.3965C313.8 27.5148 313.836 27.6331 313.874 27.755C314.786 30.744 315.329 33.819 315.801 36.9022C315.816 36.9994 315.831 37.0966 315.846 37.1968C316.003 38.2278 316.145 39.2586 316.255 40.2956C316.305 40.7558 316.364 41.2131 316.433 41.6709C317.145 46.4869 317.198 51.4496 317.249 56.308C317.251 56.4529 317.253 56.5977 317.255 56.7426C317.263 57.582 317.261 58.4208 317.249 59.2602C317.248 59.3305 317.248 59.4009 317.247 59.4733C317.139 67.8559 316.4 76.2078 314.583 84.4051C314.561 84.5092 314.538 84.6133 314.515 84.7205C313.812 87.9069 312.61 93.3079 309.661 95.196C309.231 95.4421 308.875 95.5388 308.38 95.4569C307.252 95.1329 306.578 94.1669 306.021 93.1968C304.535 90.5064 304.535 90.5064 304.535 89.8006C304.595 89.8003 304.656 89.8 304.719 89.7998C305.83 89.7483 306.674 89.1883 307.466 88.4426C310.106 85.5451 310.926 81.0692 311.712 77.3808C311.736 77.2688 311.76 77.1568 311.785 77.0414C312.747 72.5059 313.141 67.854 313.353 63.2305C313.359 63.1108 313.365 62.991 313.371 62.8677C313.778 54.4887 313.555 45.6551 311.738 37.4303C311.712 37.3105 311.685 37.1907 311.658 37.0672C310.374 30.6386 310.374 30.6386 306.514 25.5724C305.865 25.186 305.288 25.058 304.535 25.0551C304.596 24.5205 304.769 24.0834 304.99 23.598C305.026 23.5184 305.062 23.4389 305.099 23.3569C305.764 21.9252 306.573 20.2431 308.021 19.456C308.527 19.2885 308.962 19.2905 309.45 19.5069Z" fill="#EDEDED"/>
<path d="M272.131 51.5232C272.775 51.816 273.076 52.3299 273.362 52.9484C273.919 54.5336 274.017 56.1892 274.009 57.8539C274.009 57.9313 274.009 58.0086 274.008 58.0883C273.99 62.6105 273.99 62.6105 272.644 64.0447C272.299 64.2827 272.095 64.3466 271.676 64.3692C271.011 64.1489 270.73 63.7047 270.422 63.0963C269.204 60.3194 269.205 55.9231 270.276 53.0955C270.622 52.327 271.142 51.3391 272.131 51.5232Z" fill="#ACACAC"/>
</g>
<path id="Circle3" d="M267.41 29.5731C269.683 31.4791 271.235 34.1206 271.591 37.0754C271.853 40.7082 270.915 43.7764 268.511 46.5469C266.332 48.8861 263.294 50.1315 260.128 50.3195C256.884 50.3941 253.945 49.2 251.593 47.0161C249.269 44.7767 248.059 41.7993 248.01 38.6C248.008 35.9151 248.884 33.5104 250.496 31.3658C250.569 31.2682 250.642 31.1705 250.717 31.0699C251.282 30.3473 251.922 29.7831 252.65 29.228C252.732 29.1642 252.814 29.1004 252.898 29.0347C257.224 25.8448 263.321 26.2581 267.41 29.5731Z" fill="#7B7B7B"/>
<path id="Number3" d="M262.144 33.828C262.866 34.4426 263.217 35.0688 263.303 36.0028C263.336 36.9206 263.179 37.5239 262.675 38.2818C262.387 38.5766 262.077 38.7903 261.733 39.0199C261.793 39.0636 261.852 39.1073 261.913 39.1523C262.693 39.7369 263.281 40.2744 263.477 41.2595C263.568 42.3429 263.441 43.2879 262.733 44.1481C261.767 45.1462 260.559 45.4248 259.202 45.4588C258.121 45.4485 257.202 45.2114 256.299 44.6189C256.191 44.5496 256.083 44.4804 255.972 44.409C255.527 44.0168 255.252 43.4403 255.068 42.8883C255.068 42.586 255.068 42.2836 255.068 41.9721C255.847 41.9721 256.625 41.9721 257.427 41.9721C257.562 42.3081 257.697 42.644 257.837 42.9901C258.345 43.4119 258.788 43.5374 259.435 43.527C260.017 43.4616 260.389 43.228 260.759 42.7865C261.01 42.2752 260.977 41.7104 260.913 41.1577C260.759 40.7226 260.596 40.4774 260.195 40.2415C259.909 40.1468 259.707 40.1207 259.409 40.1075C259.318 40.1032 259.226 40.0989 259.132 40.0946C259.036 40.0906 258.941 40.0865 258.843 40.0824C258.747 40.078 258.65 40.0736 258.551 40.0691C258.313 40.0583 258.075 40.048 257.837 40.0379C257.837 39.4332 257.837 38.8285 257.837 38.2055C258.072 38.195 258.306 38.1845 258.548 38.1737C259.646 38.1067 259.646 38.1067 260.561 37.5565C260.782 37.0033 260.79 36.4516 260.708 35.864C260.548 35.5409 260.439 35.3825 260.144 35.1705C259.529 34.9632 258.85 34.9189 258.247 35.196C257.837 35.4979 257.837 35.4979 257.632 36.373C256.82 36.373 256.008 36.373 255.171 36.373C255.276 35.328 255.421 34.7 256.179 33.9978C257.885 32.6972 260.36 32.6595 262.144 33.828Z" fill="#FEFEFE"/>
</g>
<g id="AMS_Slot2">
<path id="Background2" d="M192.158 18.2284C192.58 18.5537 192.962 18.9203 193.338 19.2965C193.472 19.4303 193.608 19.5613 193.745 19.6918C194.996 20.9557 196.773 23.9219 196.773 25.7616C204.386 25.7616 212 25.7616 219.844 25.7616C219.945 25.3921 220.047 25.0226 220.152 24.6418C220.288 24.289 220.428 23.9441 220.581 23.5984C220.621 23.5061 220.662 23.4138 220.704 23.3186C221.28 22.0237 221.916 20.8593 222.818 19.7554C222.906 19.6426 222.906 19.6426 222.996 19.5275C223.805 18.5398 224.812 17.8834 226.086 17.7384C227.3 17.6673 228.304 18.0182 229.228 18.8057C230.916 20.3145 231.823 22.2876 232.661 24.3364C232.697 24.4213 232.732 24.5062 232.769 24.5937C234.581 28.9539 235.427 33.8285 236.045 38.4868C236.068 38.6545 236.09 38.8223 236.113 38.9901C236.394 41.0928 236.609 43.1998 236.782 45.3138C236.79 45.4105 236.798 45.5072 236.807 45.6069C236.868 46.3549 236.92 47.1034 236.968 47.8525C236.972 47.9205 236.977 47.9886 236.981 48.0587C237.18 51.1208 237.208 54.1795 237.205 57.2473C237.205 57.7724 237.206 58.2974 237.207 58.8224C237.217 61.6539 237.188 64.477 237.032 67.3048C237.026 67.4187 237.02 67.5326 237.013 67.65C236.8 71.4465 236.429 75.2397 235.87 79.002C235.841 79.1988 235.813 79.3957 235.784 79.5927C235.142 83.956 234.125 88.3486 232.456 92.4414C232.424 92.5207 232.392 92.6 232.359 92.6818C231.967 93.6472 231.498 94.5241 230.918 95.3936C230.864 95.4799 230.809 95.5663 230.754 95.6553C229.899 96.9586 228.827 97.9519 227.329 98.4476C225.995 98.5403 224.921 98.4128 223.862 97.5282C223.751 97.429 223.751 97.429 223.638 97.3278C223.561 97.2596 223.484 97.1913 223.404 97.121C222.789 96.5444 222.335 95.9046 221.895 95.19C221.827 95.0821 221.76 94.9743 221.69 94.8631C220.881 93.5194 220.342 92.0929 219.844 90.6089C208.424 90.5586 208.424 90.5586 196.773 90.5071C196.739 90.6751 196.705 90.8431 196.67 91.0161C196.315 92.0866 195.858 93.0953 195.331 94.0921C195.244 94.2559 195.159 94.4207 195.074 94.5855C194.254 96.1439 193.038 97.7657 191.302 98.3621C190.171 98.6205 189.054 98.5444 188.057 97.9386C185.589 96.2493 184.319 93.1721 183.43 90.4308C183.376 90.2676 183.322 90.1044 183.269 89.9412C183.141 89.5519 183.016 89.162 182.891 88.7717C182.836 88.6003 182.781 88.4291 182.725 88.2578C181.719 85.112 181.209 81.8036 180.713 78.5482C180.676 78.303 180.638 78.0579 180.6 77.8127C179.343 69.6665 179.165 61.3216 179.386 53.0952C179.388 53.0178 179.39 52.9403 179.392 52.8605C179.398 52.645 179.404 52.4295 179.411 52.214C179.417 52.0364 179.417 52.0364 179.422 51.8551C179.445 51.5009 179.491 51.1553 179.546 50.8047C179.478 50.8383 179.411 50.8719 179.341 50.9065C176.354 51.3369 173.171 50.6542 170.731 48.8689C168.078 46.8508 166.396 44.1679 165.868 40.8795C165.466 37.6821 166.337 34.6413 168.267 32.0733C168.34 31.9757 168.412 31.878 168.487 31.7775C169.053 31.0548 169.693 30.4906 170.42 29.9355C170.502 29.8717 170.584 29.8079 170.669 29.7422C173.152 27.9109 176.405 27.2572 179.442 27.6726C180.514 27.8436 181.647 28.1281 182.622 28.6121C182.641 28.5264 182.66 28.4407 182.68 28.3524C183.541 24.6903 185.005 20.2553 188.364 18.1266C189.514 17.5557 191.052 17.5465 192.158 18.2284Z" fill="#ABACAB"/>
<path id="Color2" fill="#00D800" d="M197.184 26.8817C200.445 26.8724 203.706 26.8652 206.968 26.8609C207.353 26.8604 207.738 26.8598 208.123 26.8593C208.2 26.8592 208.277 26.8591 208.356 26.859C209.597 26.8572 210.838 26.854 212.079 26.8502C213.352 26.8464 214.626 26.8442 215.9 26.8434C216.686 26.8428 217.472 26.841 218.257 26.8377C218.86 26.8353 219.463 26.8351 220.066 26.8356C220.313 26.8355 220.56 26.8347 220.807 26.8331C221.145 26.8311 221.483 26.8316 221.821 26.8327C221.966 26.8309 221.966 26.8309 222.115 26.8291C222.962 26.8366 223.702 27.0501 224.35 27.607C225.615 28.9895 226.282 30.7545 226.92 32.4807C226.947 32.5527 226.974 32.6246 227.002 32.6988C228.301 36.1593 228.845 39.9483 229.329 43.594C229.375 43.9368 229.422 44.2792 229.47 44.6217C230.618 53.0163 230.563 61.8311 229.309 72.7833C229.277 73.0087 229.245 73.234 229.213 73.4594C228.95 75.3159 228.645 77.1582 228.247 78.9911C228.23 79.0671 228.214 79.143 228.197 79.2213C226.485 87.0991 226.485 87.0991 223.732 89.0682C223.411 89.2576 223.149 89.2984 222.784 89.2983C222.647 89.2986 222.647 89.2986 222.507 89.2989C222.356 89.2984 222.356 89.2984 222.203 89.298C222.043 89.2981 222.043 89.2981 221.88 89.2982C221.521 89.2984 221.162 89.2979 220.803 89.2973C220.546 89.2973 220.289 89.2973 220.033 89.2973C219.479 89.2974 218.926 89.2971 218.373 89.2965C217.572 89.2957 216.772 89.2954 215.972 89.2953C214.674 89.2951 213.376 89.2944 212.078 89.2934C210.817 89.2925 209.555 89.2918 208.294 89.2913C208.217 89.2913 208.139 89.2913 208.059 89.2912C207.669 89.2911 207.279 89.291 206.889 89.2909C203.654 89.2898 200.419 89.288 197.184 89.2857C197.212 89.1735 197.24 89.0613 197.269 88.9456C197.307 88.7971 197.344 88.6486 197.382 88.5001C197.409 88.3894 197.409 88.3894 197.438 88.2764C198 86.0465 198.519 83.8121 198.927 81.5489C198.95 81.4192 198.974 81.2895 198.999 81.156C199.818 76.6505 200.283 72.0947 200.542 67.5258C200.548 67.419 200.554 67.3122 200.56 67.2022C200.728 64.1906 200.794 61.182 200.792 58.1664C200.792 58.0447 200.792 58.0447 200.792 57.9204C200.791 53.6207 200.652 49.3338 200.281 45.0486C200.26 44.7979 200.239 44.5473 200.217 44.2966C200.033 42.1326 199.775 39.9824 199.471 37.8316C199.455 37.7178 199.439 37.6039 199.423 37.4866C199.377 37.1648 199.331 36.843 199.284 36.5214C199.271 36.4243 199.257 36.3273 199.242 36.2273C199.229 36.1387 199.216 36.0502 199.203 35.9589C199.192 35.8815 199.18 35.8041 199.169 35.7244C199.139 35.5263 199.139 35.5263 199.029 35.3312C198.996 35.1574 198.967 34.983 198.94 34.8082C198.815 34.0348 198.662 33.2673 198.504 32.4998C198.489 32.4258 198.473 32.3518 198.458 32.2755C198.195 31.0037 197.888 29.7467 197.55 28.4927C197.517 28.3699 197.484 28.2472 197.45 28.1208C197.421 28.0138 197.392 27.9068 197.362 27.7966C197.286 27.4928 197.234 27.1904 197.184 26.8817Z"/>
<g id="Foreground2">
<path d="M190.91 20.1948C193.573 21.6644 194.628 26.0432 195.396 28.7092C196.01 30.8884 196.461 33.1078 196.877 35.3313C196.901 35.459 196.924 35.5867 196.949 35.7183C197.876 40.7548 198.291 45.8979 198.517 51.0087C198.522 51.1023 198.526 51.1959 198.53 51.2924C198.631 53.5138 198.64 55.7335 198.639 57.9566C198.639 58.0959 198.639 58.0959 198.639 58.238C198.639 61.2283 198.601 64.2096 198.415 67.1951C198.404 67.3784 198.393 67.5617 198.381 67.745C197.116 88.3168 197.116 88.3168 191.955 95.0886C191.889 95.1627 191.824 95.2369 191.757 95.3133C191.338 95.762 190.943 96.1247 190.314 96.2084C189.487 96.1839 188.922 95.7595 188.37 95.1848C185.743 92.1228 184.87 87.631 184.007 83.8064C183.961 83.6053 183.915 83.4045 183.868 83.2037C182.558 77.5765 182.114 71.7055 181.818 65.9499C181.808 65.7642 181.798 65.5786 181.788 65.393C181.669 63.1852 181.685 60.975 181.688 58.7648C181.688 58.2146 181.688 57.6643 181.687 57.1141C181.685 54.8055 181.693 52.5007 181.803 50.1943C181.917 50.1402 182.03 50.0861 182.147 50.0303C185.128 48.6008 187.522 46.4126 188.647 43.2613C189.642 40.3075 189.59 37.0071 188.186 34.1861C187.525 32.9089 186.678 31.7028 185.57 30.769C185.513 30.7202 185.456 30.6715 185.397 30.6213C185.285 30.527 185.172 30.4347 185.056 30.3448C184.901 30.2146 184.901 30.2146 184.675 29.9359C184.672 29.6522 184.699 29.4889 184.777 29.2233C184.799 29.1393 184.821 29.0553 184.843 28.9687C186.723 21.9571 186.723 21.9571 189.183 20.3356C189.764 20.0143 190.281 19.9407 190.91 20.1948Z" fill="#EDEDED"/>
<path d="M227.221 20.2139C229.762 21.6204 230.753 25.5539 231.535 28.1035C231.571 28.2218 231.608 28.3401 231.645 28.462C232.557 31.451 233.1 34.526 233.572 37.6092C233.587 37.7064 233.602 37.8037 233.618 37.9038C233.775 38.9349 233.916 39.9657 234.027 41.0027C234.076 41.4628 234.136 41.9201 234.204 42.3779C234.916 47.1939 234.969 52.1567 235.021 57.015C235.023 57.1599 235.024 57.3048 235.026 57.4496C235.035 58.289 235.032 59.1279 235.021 59.9673C235.02 60.0376 235.019 60.1079 235.018 60.1803C234.91 68.563 234.171 76.9149 232.355 85.1121C232.332 85.2162 232.31 85.3203 232.286 85.4276C231.584 88.6139 230.382 94.0149 227.433 95.903C227.002 96.1492 226.646 96.2458 226.151 96.1639C225.024 95.8399 224.35 94.874 223.792 93.9039C222.306 91.2135 222.306 91.2135 222.306 90.5076C222.367 90.5073 222.428 90.5071 222.491 90.5068C223.602 90.4553 224.445 89.8954 225.238 89.1496C227.878 86.2521 228.698 81.7763 229.484 78.0879C229.508 77.9758 229.532 77.8638 229.557 77.7484C230.519 73.2129 230.913 68.5611 231.124 63.9375C231.13 63.8178 231.136 63.6981 231.142 63.5747C231.549 55.1957 231.326 46.3621 229.509 38.1373C229.483 38.0175 229.457 37.8977 229.43 37.7743C228.146 31.3456 228.146 31.3456 224.285 26.2795C223.636 25.893 223.06 25.765 222.306 25.7621C222.368 25.2275 222.541 24.7904 222.761 24.3051C222.797 24.2255 222.833 24.1459 222.87 24.0639C223.535 22.6323 224.345 20.9502 225.792 20.163C226.298 19.9956 226.734 19.9976 227.221 20.2139Z" fill="#EDEDED"/>
<path d="M189.903 52.2302C190.546 52.5231 190.848 53.0369 191.133 53.6554C191.69 55.2406 191.789 56.8962 191.781 58.561C191.78 58.6383 191.78 58.7157 191.78 58.7954C191.762 63.3175 191.762 63.3175 190.415 64.7518C190.071 64.9897 189.866 65.0536 189.448 65.0762C188.782 64.8559 188.502 64.4118 188.194 63.8033C186.975 61.0264 186.976 56.6302 188.047 53.8026C188.394 53.0341 188.914 52.0461 189.903 52.2302Z" fill="#ACACAC"/>
</g>
<path id="Circle2" d="M185.182 30.2802C187.455 32.1861 189.006 34.8276 189.362 37.7824C189.625 41.4152 188.687 44.4835 186.283 47.2539C184.104 49.5932 181.065 50.8386 177.899 51.0265C174.656 51.1011 171.717 49.9071 169.364 47.7232C167.04 45.4838 165.83 42.5063 165.781 39.3071C165.779 36.6221 166.656 34.2175 168.268 32.0728C168.341 31.9752 168.413 31.8776 168.489 31.777C169.054 31.0543 169.694 30.4901 170.421 29.935C170.503 29.8712 170.585 29.8074 170.67 29.7417C174.995 26.5519 181.093 26.9651 185.182 30.2802Z" fill="#00AE42"/>
<path id="Number2" d="M180.002 34.3376C180.693 34.9984 180.985 35.6837 181.018 36.6317C181.045 38.61 179.92 39.8097 178.635 41.1988C178.27 41.6027 177.938 42.031 177.599 42.4562C177.26 42.8593 176.922 43.2625 176.573 43.6778C178.959 43.7282 178.959 43.7282 181.393 43.7796C181.393 44.3843 181.393 44.989 181.393 45.612C178.719 45.612 176.046 45.612 173.292 45.612C173.292 43.9832 173.292 43.9832 173.76 43.3724C173.944 43.2005 174.129 43.0306 174.317 42.8634C174.442 42.7277 174.564 42.59 174.683 42.4498C174.946 42.1491 175.214 41.8536 175.484 41.5591C175.893 41.1095 176.28 40.6457 176.663 40.174C176.853 39.945 177.049 39.7277 177.253 39.5103C178.043 38.6268 178.457 37.7435 178.448 36.57C178.408 36.1267 178.319 35.952 178.009 35.6355C177.55 35.3574 177.096 35.3679 176.573 35.4319C176.068 35.6548 175.86 35.9442 175.626 36.4201C175.516 36.7268 175.516 36.7268 175.445 37.3662C174.633 37.3662 173.821 37.3662 172.984 37.3662C172.984 36.1858 173.321 35.3315 174.125 34.4585C175.644 33.0079 178.42 33.0118 180.002 34.3376Z" fill="#FCFEFD"/>
</g>
<g id="AMS_Slot1">
<path id="Background1" d="M109.811 17.9041C110.233 18.2295 110.614 18.5961 110.99 18.9723C111.124 19.106 111.261 19.2371 111.398 19.3675C112.649 20.6314 114.425 23.5977 114.425 25.4374C122.038 25.4374 129.652 25.4374 137.496 25.4374C137.598 25.0679 137.699 24.6984 137.804 24.3176C137.941 23.9647 138.08 23.6199 138.233 23.2742C138.274 23.1818 138.314 23.0895 138.356 22.9944C138.932 21.6995 139.568 20.5351 140.47 19.4312C140.558 19.3184 140.558 19.3184 140.648 19.2033C141.458 18.2156 142.465 17.5592 143.738 17.4142C144.952 17.3431 145.957 17.6939 146.88 18.4815C148.569 19.9903 149.475 21.9634 150.314 24.0122C150.349 24.0971 150.385 24.182 150.421 24.2695C152.234 28.6297 153.08 33.5042 153.697 38.1626C153.72 38.3303 153.743 38.4981 153.765 38.6659C154.047 40.7686 154.261 42.8755 154.434 44.9896C154.443 45.0863 154.451 45.183 154.459 45.2826C154.521 46.0307 154.572 46.7792 154.62 47.5283C154.625 47.5963 154.629 47.6643 154.634 47.7344C154.832 50.7966 154.861 53.8553 154.858 56.9231C154.857 57.4481 154.858 57.9731 154.86 58.4982C154.87 61.3297 154.841 64.1528 154.685 66.9806C154.679 67.0945 154.672 67.2084 154.666 67.3258C154.452 71.1223 154.081 74.9155 153.523 78.6777C153.494 78.8746 153.465 79.0715 153.437 79.2684C152.795 83.6318 151.777 88.0244 150.109 92.1171C150.077 92.1965 150.045 92.2758 150.012 92.3575C149.619 93.323 149.15 94.1999 148.57 95.0694C148.516 95.1557 148.462 95.2421 148.406 95.331C147.551 96.6344 146.48 97.6277 144.982 98.1234C143.648 98.2161 142.573 98.0886 141.514 97.204C141.403 97.1048 141.403 97.1048 141.29 97.0036C141.213 96.9354 141.136 96.8671 141.057 96.7968C140.441 96.2202 139.987 95.5803 139.547 94.8658C139.479 94.7579 139.412 94.65 139.342 94.5389C138.533 93.1952 137.994 91.7687 137.496 90.2847C126.076 90.2343 126.076 90.2343 114.425 90.1829C114.391 90.3509 114.357 90.5189 114.322 90.6919C113.967 91.7624 113.511 92.7711 112.983 93.7678C112.896 93.9317 112.811 94.0965 112.727 94.2613C111.906 95.8197 110.69 97.4415 108.954 98.0379C107.824 98.2963 106.707 98.2202 105.709 97.6144C103.241 95.9251 101.971 92.8479 101.082 90.1066C101.028 89.9434 100.975 89.7802 100.921 89.617C100.794 89.2277 100.668 88.8378 100.543 88.4475C100.488 88.2761 100.433 88.1048 100.378 87.9336C99.3713 84.7878 98.8614 81.4794 98.3656 78.224C98.3282 77.9788 98.2903 77.7336 98.2522 77.4885C96.9954 69.3423 96.8175 60.9973 97.0382 52.771C97.0402 52.6935 97.0422 52.6161 97.0443 52.5363C97.0501 52.3207 97.0566 52.1053 97.0634 51.8898C97.0691 51.7122 97.0691 51.7122 97.0748 51.5309C97.0969 51.1766 97.1432 50.8311 97.1984 50.4805C97.1307 50.5141 97.0631 50.5477 96.9933 50.5823C94.0067 51.0127 90.8234 50.33 88.3834 48.5447C85.73 46.5265 84.0486 43.8437 83.5199 40.5553C83.118 37.3579 83.989 34.317 85.9191 31.7491C85.9919 31.6515 86.0648 31.5538 86.1398 31.4532C86.7051 30.7306 87.3451 30.1664 88.0724 29.6113C88.1545 29.5475 88.2366 29.4837 88.3212 29.418C90.8044 27.5866 94.0577 26.9329 97.0943 27.3483C98.1666 27.5194 99.2996 27.8039 100.275 28.2879C100.293 28.2022 100.312 28.1165 100.332 28.0282C101.194 24.3661 102.658 19.9311 106.017 17.8023C107.167 17.2314 108.705 17.2223 109.811 17.9041Z" fill="#ABACAB"/>
<path id="Color1" fill="#00D800" d="M114.836 26.5574C118.097 26.5482 121.359 26.5409 124.62 26.5367C125.005 26.5361 125.39 26.5356 125.776 26.5351C125.852 26.535 125.929 26.5349 126.008 26.5348C127.249 26.533 128.49 26.5298 129.731 26.526C131.005 26.5222 132.279 26.52 133.553 26.5191C134.338 26.5186 135.124 26.5168 135.91 26.5135C136.513 26.5111 137.116 26.5108 137.719 26.5114C137.966 26.5113 138.213 26.5105 138.46 26.5089C138.797 26.5069 139.135 26.5074 139.473 26.5085C139.619 26.5067 139.619 26.5067 139.767 26.5049C140.614 26.5124 141.354 26.7258 142.002 27.2828C143.268 28.6653 143.935 30.4302 144.572 32.1565C144.599 32.2285 144.627 32.3004 144.655 32.3746C145.954 35.8351 146.497 39.624 146.981 43.2698C147.027 43.6125 147.074 43.955 147.122 44.2975C148.27 52.6921 148.215 61.5068 146.962 72.4591C146.929 72.6844 146.897 72.9098 146.865 73.1352C146.602 74.9917 146.297 76.834 145.899 78.6669C145.882 78.7428 145.866 78.8188 145.849 78.897C144.137 86.7749 144.137 86.7749 141.384 88.744C141.064 88.9334 140.801 88.9742 140.436 88.974C140.299 88.9743 140.299 88.9744 140.159 88.9747C140.009 88.9742 140.009 88.9742 139.855 88.9738C139.695 88.9739 139.695 88.9739 139.532 88.974C139.173 88.9742 138.814 88.9736 138.455 88.9731C138.198 88.973 137.942 88.9731 137.685 88.9731C137.132 88.9731 136.578 88.9729 136.025 88.9723C135.225 88.9715 134.425 88.9712 133.624 88.9711C132.326 88.9708 131.028 88.9702 129.73 88.9692C128.469 88.9683 127.208 88.9675 125.947 88.9671C125.869 88.9671 125.791 88.9671 125.711 88.967C125.321 88.9669 124.931 88.9668 124.542 88.9666C121.306 88.9656 118.071 88.9638 114.836 88.9615C114.864 88.8493 114.893 88.737 114.922 88.6214C114.959 88.4729 114.996 88.3244 115.034 88.1759C115.062 88.0652 115.062 88.0652 115.09 87.9522C115.652 85.7222 116.171 83.4879 116.579 81.2246C116.603 81.095 116.627 80.9653 116.651 80.8317C117.47 76.3262 117.935 71.7705 118.194 67.2015C118.2 67.0948 118.206 66.988 118.212 66.878C118.38 63.8664 118.446 60.8577 118.444 57.8422C118.444 57.7204 118.444 57.7204 118.444 57.5962C118.443 53.2965 118.304 49.0095 117.934 44.7243C117.912 44.4737 117.891 44.2231 117.87 43.9724C117.685 41.8083 117.427 39.6582 117.124 37.5074C117.108 37.3936 117.092 37.2797 117.075 37.1624C117.03 36.8406 116.983 36.5188 116.937 36.1971C116.923 36.1001 116.909 36.0031 116.895 35.9031C116.882 35.8145 116.869 35.7259 116.855 35.6347C116.844 35.5573 116.833 35.4799 116.821 35.4002C116.791 35.2021 116.791 35.2021 116.682 35.0069C116.649 34.8332 116.62 34.6587 116.593 34.484C116.467 33.7105 116.314 32.9431 116.156 32.1756C116.141 32.1016 116.126 32.0276 116.11 31.9513C115.848 30.6795 115.541 29.4225 115.203 28.1684C115.17 28.0457 115.137 27.923 115.103 27.7966C115.073 27.6896 115.044 27.5826 115.014 27.4724C114.939 27.1686 114.886 26.8662 114.836 26.5574Z"/>
<g id="Foreground1">
<path d="M108.563 19.8706C111.225 21.3402 112.28 25.719 113.048 28.385C113.662 30.5642 114.114 32.7835 114.529 35.0071C114.553 35.1348 114.577 35.2625 114.601 35.394C115.528 40.4306 115.944 45.5737 116.17 50.6845C116.174 50.7781 116.178 50.8717 116.183 50.9682C116.284 53.1895 116.293 55.4093 116.291 57.6324C116.291 57.7717 116.291 57.7717 116.291 57.9138C116.291 60.9041 116.253 63.8854 116.067 66.8709C116.056 67.0542 116.045 67.2375 116.034 67.4208C115.547 79.0376 114.769 87.9926 109.607 94.7644C109.542 94.8385 109.477 94.9127 109.409 94.989C108.991 95.4378 108.595 95.8005 107.967 95.8842C107.14 95.8597 106.575 95.4353 106.022 94.8606C103.395 91.7986 102.522 87.3067 101.659 83.4822C101.614 83.2811 101.567 83.0803 101.52 82.8794C100.21 77.2523 99.7659 71.3813 99.4702 65.6257C99.4607 65.44 99.4508 65.2544 99.4406 65.0688C99.3218 62.861 99.3375 60.6507 99.3399 58.4406C99.3404 57.8903 99.3401 57.3401 99.3395 56.7899C99.3374 54.4813 99.3453 52.1765 99.4558 49.8701C99.569 49.816 99.6823 49.7619 99.799 49.7061C102.78 48.2766 105.174 46.0884 106.3 42.9371C107.294 39.9833 107.243 36.6829 105.839 33.8619C105.177 32.5847 104.331 31.3786 103.222 30.4448C103.165 30.396 103.108 30.3473 103.049 30.2971C102.938 30.2027 102.824 30.1104 102.708 30.0206C102.554 29.8904 102.554 29.8904 102.327 29.6117C102.324 29.328 102.351 29.1646 102.429 28.8991C102.451 28.815 102.473 28.731 102.496 28.6445C104.375 21.6328 104.375 21.6328 106.835 20.0113C107.416 19.69 107.933 19.6165 108.563 19.8706Z" fill="#EDEDED"/>
<path d="M144.874 19.8897C147.414 21.2962 148.405 25.2296 149.187 27.7793C149.223 27.8976 149.26 28.0159 149.298 28.1378C150.21 31.1268 150.752 34.2018 151.225 37.285C151.24 37.3822 151.255 37.4794 151.27 37.5796C151.427 38.6107 151.569 39.6414 151.679 40.6784C151.729 41.1386 151.788 41.5959 151.856 42.0537C152.568 46.8697 152.622 51.8324 152.673 56.6908C152.675 56.8357 152.677 56.9805 152.678 57.1254C152.687 57.9648 152.685 58.8037 152.673 59.643C152.672 59.7134 152.671 59.7837 152.671 59.8561C152.563 68.2387 151.824 76.5907 150.007 84.7879C149.985 84.892 149.962 84.9961 149.939 85.1034C149.236 88.2897 148.034 93.6907 145.085 95.5788C144.654 95.8249 144.298 95.9216 143.804 95.8397C142.676 95.5157 142.002 94.5498 141.445 93.5796C139.958 90.8893 139.958 90.8893 139.958 90.1834C140.019 90.1831 140.08 90.1828 140.143 90.1826C141.254 90.1311 142.098 89.5711 142.89 88.8254C145.53 85.9279 146.35 81.452 147.136 77.7636C147.16 77.6516 147.184 77.5396 147.209 77.4242C148.171 72.8887 148.565 68.2368 148.777 63.6133C148.783 63.4936 148.789 63.3739 148.795 63.2505C149.202 54.8715 148.979 46.0379 147.162 37.8131C147.135 37.6933 147.109 37.5735 147.082 37.45C145.798 31.0214 145.798 31.0214 141.938 25.9552C141.289 25.5688 140.712 25.4408 139.958 25.4379C140.02 24.9033 140.193 24.4662 140.413 23.9808C140.449 23.9013 140.486 23.8217 140.523 23.7397C141.187 22.308 141.997 20.6259 143.445 19.8388C143.951 19.6713 144.386 19.6733 144.874 19.8897Z" fill="#EDEDED"/>
<path d="M107.555 51.906C108.199 52.1988 108.5 52.7127 108.786 53.3312C109.343 54.9164 109.441 56.572 109.433 58.2368C109.433 58.3141 109.432 58.3915 109.432 58.4712C109.414 62.9933 109.414 62.9933 108.068 64.4275C107.723 64.6655 107.518 64.7294 107.1 64.752C106.434 64.5317 106.154 64.0875 105.846 63.4791C104.627 60.7022 104.629 56.3059 105.7 53.4783C106.046 52.7098 106.566 51.7219 107.555 51.906Z" fill="#ACACAC"/>
</g>
<path id="Circle1" d="M102.834 29.956C105.107 31.8619 106.659 34.5034 107.014 37.4582C107.277 41.091 106.339 44.1592 103.935 46.9297C101.756 49.269 98.7176 50.5144 95.5516 50.7023C92.3079 50.7769 89.3693 49.5828 87.0165 47.3989C84.6925 45.1595 83.4826 42.1821 83.4336 38.9828C83.4318 36.2979 84.3082 33.8932 85.9202 31.7486C85.993 31.651 86.0658 31.5533 86.1409 31.4527C86.7062 30.7301 87.3462 30.1659 88.0735 29.6108C88.1556 29.547 88.2377 29.4832 88.3222 29.4175C92.6474 26.2276 98.7452 26.6409 102.834 29.956Z" fill="#7B7B7B"/>
<path id="Number1" d="M97.5137 33.498C97.5137 37.5294 97.5137 41.5607 97.5137 45.7142C96.7354 45.7142 95.9571 45.7142 95.1553 45.7142C95.1553 42.4219 95.1553 39.1297 95.1553 35.7377C94.3093 35.7377 93.4634 35.7377 92.5918 35.7377C92.5918 35.133 92.5918 34.5283 92.5918 33.9053C92.9126 33.746 93.2614 33.7542 93.6144 33.7267C93.6961 33.7201 93.7778 33.7134 93.8621 33.7066C94.0356 33.6926 94.2091 33.6789 94.3826 33.6653C94.6455 33.6447 94.9083 33.6232 95.1711 33.6016C95.3401 33.5881 95.509 33.5747 95.678 33.5613C95.7556 33.5549 95.8331 33.5486 95.9131 33.542C96.4515 33.5006 96.9699 33.498 97.5137 33.498Z" fill="#FEFEFE"/>
</g>
</g>
</svg>
